<?xml version="1.0" standalone="no"?>
<!DOCTYPE svg PUBLIC "-//W3C//DTD SVG 20010904//EN"
 "http://www.w3.org/TR/2001/REC-SVG-20010904/DTD/svg10.dtd">
<svg version="1.0" xmlns="http://www.w3.org/2000/svg"
 width="512.000000pt" height="512.000000pt" viewBox="0 0 512.000000 512.000000"
 preserveAspectRatio="xMidYMid meet">
<metadata>
Created by potrace 1.16, written by Peter Selinger 2001-2019
</metadata>
<g transform="translate(0.000000,512.000000) scale(0.100000,-0.100000)"
fill="#000000" stroke="none">
<path d="M2421 4659 c-430 -50 -794 -369 -908 -794 -23 -89 -26 -118 -26 -265
0 -146 3 -176 26 -262 54 -202 150 -362 310 -513 l99 -95 -44 -19 c-119 -52
-162 -73 -230 -112 -257 -149 -504 -393 -654 -645 -100 -168 -175 -363 -215
-559 -20 -98 -23 -145 -26 -440 -4 -316 -3 -331 16 -362 11 -18 35 -40 53 -50
31 -17 115 -18 1733 -18 l1700 0 36 22 c71 44 71 48 67 413 -4 257 -8 343 -22
410 -76 370 -229 661 -485 923 -184 189 -374 316 -630 423 l-33 14 99 94 c160
152 256 312 310 514 23 86 26 116 26 262 0 145 -3 177 -26 262 -115 434 -478
748 -920 797 -108 12 -149 12 -256 0z m324 -325 c261 -70 473 -279 546 -539
30 -103 32 -277 5 -374 -75 -275 -282 -482 -557 -557 -88 -24 -280 -24 -368 0
-269 74 -478 279 -552 541 -18 62 -23 106 -23 195 0 89 5 133 23 195 83 292
330 509 636 559 54 8 229 -3 290 -20z m57 -1823 c578 -99 1057 -534 1202
-1092 36 -139 46 -231 46 -420 l0 -169 -1496 0 -1496 0 5 218 c4 168 10 236
25 303 70 298 193 520 407 735 228 229 495 369 805 424 146 26 354 26 502 1z"/>
<path d="M1260 4281 c-324 -69 -583 -317 -672 -646 -30 -113 -30 -325 1 -440
28 -107 99 -245 167 -328 30 -38 54 -70 52 -71 -2 -1 -46 -27 -98 -58 -348
-206 -584 -535 -671 -936 -17 -80 -22 -143 -26 -357 l-5 -260 24 -34 c49 -73
60 -76 259 -79 l179 -3 0 60 c0 58 16 198 26 234 5 15 -4 17 -85 17 l-91 0 0
98 c0 317 106 582 320 806 137 143 309 247 500 302 105 31 138 50 162 94 23
42 20 112 -6 153 -10 15 -54 46 -99 69 -356 188 -432 636 -154 913 46 46 98
86 146 111 73 39 73 39 106 116 18 42 58 116 89 163 31 47 56 88 56 90 0 11
-100 3 -180 -14z"/>
<path d="M3670 4295 c0 -4 20 -38 45 -76 42 -62 125 -226 125 -245 0 -5 35
-27 78 -48 95 -49 203 -154 250 -242 86 -165 87 -355 2 -524 -59 -117 -141
-197 -274 -265 -75 -39 -106 -81 -106 -142 0 -85 43 -130 150 -158 194 -50
391 -166 531 -312 210 -219 319 -501 319 -828 l0 -75 -91 0 -91 0 6 -28 c12
-52 25 -177 26 -230 l0 -53 179 3 c196 3 206 6 255 72 20 26 21 40 20 274 0
274 -10 358 -65 529 -108 340 -365 654 -664 811 -73 39 -73 34 -16 103 65 80
145 239 172 344 30 115 30 298 1 418 -91 369 -409 643 -783 674 -38 3 -69 2
-69 -2z"/>
</g>
</svg>
